<?xml version="1.0" encoding="UTF-8" standalone="no"?>
<svg
   xmlns:dc="http://purl.org/dc/elements/1.1/"
   xmlns:cc="http://creativecommons.org/ns#"
   xmlns:rdf="http://www.w3.org/1999/02/22-rdf-syntax-ns#"
   xmlns:svg="http://www.w3.org/2000/svg"
   xmlns="http://www.w3.org/2000/svg"
   xmlns:xlink="http://www.w3.org/1999/xlink"
   xmlns:sodipodi="http://sodipodi.sourceforge.net/DTD/sodipodi-0.dtd"
   xmlns:inkscape="http://www.inkscape.org/namespaces/inkscape"
   xml:space="preserve"
   enable-background="new 0 0 722.569 346.291"
   viewBox="0 0 369.27272 172.30075"
   height="172.30074"
   width="369.27271"
   y="0px"
   x="0px"
   id="Layer_1"
   version="1.1"
   inkscape:version="0.91 r13725"
   sodipodi:docname="qgis-logo-made-with-color.svg"><sodipodi:namedview
     pagecolor="#ffffff"
     bordercolor="#666666"
     borderopacity="1"
     objecttolerance="10"
     gridtolerance="10"
     guidetolerance="10"
     inkscape:pageopacity="0"
     inkscape:pageshadow="2"
     inkscape:window-width="1279"
     inkscape:window-height="818"
     id="namedview29"
     showgrid="false"
     showguides="true"
     inkscape:guide-bbox="true"
     inkscape:zoom="1.7385525"
     inkscape:cx="181.08027"
     inkscape:cy="61.658837"
     inkscape:window-x="596"
     inkscape:window-y="79"
     inkscape:window-maximized="0"
     inkscape:current-layer="Layer_1"><sodipodi:guide
       position="176.00849,-7.4774853"
       orientation="1,0"
       id="guide4157" /></sodipodi:namedview><metadata
     id="metadata46"><rdf:RDF><cc:Work
         rdf:about=""><dc:format>image/svg+xml</dc:format><dc:type
           rdf:resource="http://purl.org/dc/dcmitype/StillImage" /><dc:title /></cc:Work></rdf:RDF></metadata><defs
     id="defs44"><linearGradient
       gradientTransform="translate(-100.25588,2.3875393)"
       gradientUnits="userSpaceOnUse"
       y2="167.98872"
       x2="717.75787"
       y1="248.36922"
       x1="721.1015"
       id="linearGradient4329"
       xlink:href="#SVGID_5_" /><linearGradient
       gradientTransform="translate(-100.20591,-87.198628)"
       y2="102.9362"
       x2="186.5125"
       y1="250.2354"
       x1="188.7529"
       gradientUnits="userSpaceOnUse"
       id="linearGradient4331"
       xlink:href="#SVGID_5_" /><linearGradient
       gradientUnits="userSpaceOnUse"
       y2="98.686951"
       x2="606.49799"
       y1="98.686951"
       x1="105.5037"
       id="linearGradient4440"
       xlink:href="#SVGID_5_" /></defs><linearGradient
     gradientTransform="translate(-110.63499,-98.765)"
     y2="100.4837"
     x2="347.78201"
     y1="247.7832"
     x1="350.02249"
     gradientUnits="userSpaceOnUse"
     id="SVGID_1_"><stop
       id="stop6"
       style="stop-color:#589632"
       offset="0" /><stop
       id="stop8"
       style="stop-color:#93B023"
       offset="1" /></linearGradient><linearGradient
     gradientTransform="translate(-110.63499,-98.765)"
     y2="98.822403"
     x2="456.98129"
     y1="246.1226"
     x1="459.22171"
     gradientUnits="userSpaceOnUse"
     id="SVGID_2_"><stop
       id="stop13"
       style="stop-color:#589632"
       offset="0" /><stop
       id="stop15"
       style="stop-color:#93B023"
       offset="1" /></linearGradient><linearGradient
     gradientTransform="translate(-110.63499,-98.765)"
     y2="97.388199"
     x2="551.26642"
     y1="244.6875"
     x1="553.50677"
     gradientUnits="userSpaceOnUse"
     id="SVGID_3_"><stop
       id="stop20"
       style="stop-color:#589632"
       offset="0" /><stop
       id="stop22"
       style="stop-color:#93B023"
       offset="1" /></linearGradient><linearGradient
     y2="101.4977"
     x2="232.211"
     y1="250.03419"
     x1="234.4702"
     gradientUnits="userSpaceOnUse"
     id="SVGID_4_"
     gradientTransform="matrix(1.0527484,0,0,1.0527484,-10.062271,-9.4206918)"><stop
       id="stop27"
       style="stop-color:#589632"
       offset="0" /><stop
       id="stop29"
       style="stop-color:#93B023"
       offset="1" /></linearGradient><linearGradient
     y2="102.9362"
     x2="186.5125"
     y1="250.2354"
     x1="188.7529"
     gradientUnits="userSpaceOnUse"
     id="SVGID_5_"><stop
       id="stop36"
       style="stop-color:#589632"
       offset="0" /><stop
       id="stop38"
       style="stop-color:#93B023"
       offset="1" /></linearGradient><path
     id="rect4317"
     transform="translate(-1.525879e-5,0)"
     d="m 0,0 0,172.30078 369.27344,0 0,-172.30078 z m 308.26953,5.7363281 9.18555,0 0,39.4023439 -9.18555,0 0,-3.769531 c -2.01791,2.655123 -4.93943,4.140625 -8.60351,4.140625 -8.07161,0 -13.38086,-5.946303 -13.38086,-14.814454 0,-8.761933 5.25761,-14.550781 13.16992,-14.550781 3.77029,0 6.79654,1.487455 8.81445,4.142578 z M 7.6328125,7.5703125 l 160.3632775,0 0,157.9765675 -160.3632775,0 z M 195.71778,16.091797 c 4.67303,0 8.12482,2.442724 9.55859,6.478515 1.8586,-4.248202 5.36371,-6.425415 10.08985,-6.478515 6.26611,0 10.30078,4.301261 10.30078,10.992187 l 0,18.054688 -9.13281,0 0,-15.50586 c 0,-3.398558 -1.9126,-5.470703 -4.93946,-5.470703 -3.45167,0.106206 -5.73136,2.925518 -5.57422,6.798829 l 0,14.177734 -9.1875,0 0,-15.50586 c 0,-3.398558 -1.8579,-5.470703 -4.88476,-5.470703 -3.50477,0.106206 -5.84074,2.925518 -5.6836,6.798829 l 0,14.177734 -9.13281,0 0,-28.623047 9.13281,0 0,4.726563 c 1.9648,-3.398573 5.25801,-5.097291 9.45313,-5.150391 z m 61.91308,0 c 7.8592,0 12.42541,3.87694 12.47852,10.355469 l 0,18.691406 -8.97266,0 0,-3.292969 c -1.85859,2.442724 -4.88717,3.716797 -8.76367,3.716797 -6.10681,0 -9.82227,-3.715502 -9.82227,-8.972656 0,-5.416475 3.87643,-8.60315 10.99219,-8.65625 l 7.53906,0 0,-0.425782 c 0,-2.81443 -1.85703,-4.513671 -5.57422,-4.513671 -2.38962,0 -5.52393,0.850647 -8.55078,2.390625 l -2.60156,-6.054688 c 4.46062,-2.071006 8.49615,-3.238281 13.27539,-3.238281 z m 91.92773,0.105469 c 10.08951,0 15.08059,6.638388 14.44336,17.099609 l -20.12695,0 c 0.90275,3.398572 3.34556,5.310547 6.74414,5.310547 2.49582,0 4.93987,-1.010178 6.85156,-2.921875 l 4.83203,4.726562 c -2.92065,3.186162 -7.22135,5.044922 -12.47851,5.044922 -9.34608,0 -15.1875,-5.841949 -15.1875,-14.550781 0,-8.86814 6.05372,-14.708984 14.92187,-14.708984 z m 0.10547,6.373046 c -3.18616,0 -5.36313,2.335434 -5.94726,5.78711 l 11.4707,0 c 0,-3.504779 -2.23108,-5.787109 -5.52344,-5.78711 z m -47.76758,0.902344 c -3.82339,0 -6.37268,3.02607 -6.42578,7.433594 0.0531,4.407524 2.60239,7.488281 6.42578,7.488281 3.8234,0 6.37305,-3.080757 6.37305,-7.488281 0,-4.407524 -2.54965,-7.433594 -6.37305,-7.433594 z m -46.60156,9.398438 c -2.76134,0 -4.14258,0.95597 -4.14258,3.080078 0,2.071005 1.48623,3.398437 4.03516,3.398437 2.86754,0 5.3104,-1.593169 5.89453,-3.929687 l 0,-2.548828 z m 0.68555,23.683594 c 2.81445,0 4.83203,2.019541 4.83203,4.833984 0,2.867546 -2.01758,4.884766 -4.83203,4.884766 -2.81444,0 -4.83203,-2.01722 -4.83203,-4.884766 0,-2.814443 2.01759,-4.833985 4.83203,-4.833984 z m 77.26562,2.285156 9.1875,0 0,15.505859 c 2.01791,-3.398573 5.36312,-5.099244 9.61133,-5.152344 6.31922,0 10.46094,4.301248 10.46094,10.992188 l 0,18.056641 -9.1875,0 0,-15.507813 c 0,-3.34547 -1.91186,-5.416016 -5.04492,-5.416016 -3.61098,0 -5.83985,2.867282 -5.83985,6.796875 l 0,14.126954 -9.1875,0 z m -42.0664,4.140625 9.13281,0 0,7.912109 7.48828,0 0,6.054688 -7.48828,0 0,11.205078 c 0,2.230313 0.95696,3.185912 2.65625,3.132812 0.95584,0 2.17597,-0.372902 3.55664,-0.957031 l 1.80664,6.373047 c -2.07101,1.221362 -4.88514,1.964844 -7.64648,1.964844 -5.52268,0 -8.57627,-3.205681 -9.50586,-9.080078 l 0,-12.638672 -3.98242,0 0,-6 3.98242,0 z m -113.53125,6.638672 9.3457,0 5.89453,19.80664 5.73438,-19.80664 8.76172,0 5.89453,19.80664 5.78906,-19.80664 8.97461,0 -10.46289,28.623047 -9.08008,0 -5.62891,-18.16211 -5.6289,18.16211 -9.13281,0 z m 73.71289,0 9.13281,0 0,28.623047 -9.13281,0 z m -46.10352,40.521479 c 16.49937,1e-5 28.81641,11.55701 28.81641,26.99219 0,4.9461 -1.25464,9.51211 -3.4961,13.43946 l -8.69335,-8.69141 c 0.37527,-1.48454 0.57812,-3.05285 0.57812,-4.68164 0,-10.01503 -7.54844,-17.56836 -17.0293,-17.56836 -9.48086,0 -17.38281,7.55371 -17.38281,17.56836 0,10.01465 7.98985,17.73828 17.38281,17.73828 1.31324,0 2.58633,-0.15186 3.81055,-0.43359 l 7.76563,7.72656 c -3.54946,1.41918 -7.51208,2.19922 -11.75196,2.19922 -16.4235,0 -28.74219,-11.70994 -28.74219,-27.29688 10e-6,-15.51106 12.31831,-26.99219 28.74219,-26.99219 z m 138.85547,0.31836 c 7.43774,-3.7e-4 14.87516,2.27635 20.1875,5.76758 l -4.6289,9.94141 c -5.61625,-3.33946 -12.2949,-5.46289 -16.54493,-5.46289 -4.02239,0 -6.7539,1.44198 -6.7539,4.32617 0,9.79076 28.3083,4.32567 28.23242,23.45117 0,10.3978 -9.03166,16.01367 -20.79492,16.01367 -8.72845,0 -17.45786,-3.33874 -23.45313,-8.42382 l 4.78125,-9.79102 c 5.46486,4.85782 13.20603,7.96875 18.82227,7.96875 4.9337,0 7.89453,-1.82039 7.89453,-5.08398 0,-10.01803 -28.31055,-4.17375 -28.31055,-22.9961 0,-9.63863 8.27281,-15.71094 20.56836,-15.71094 z m -74.5293,0.15235 c 7.89339,0 15.9372,3.03493 21.32618,7.74023 l -6.75391,8.57617 c -3.94688,-3.64299 -9.4113,-5.91992 -14.57227,-5.91992 -9.41174,0 -16.69726,7.21177 -16.69726,16.54688 0,9.41099 7.36283,16.62109 16.77344,16.62109 3.18771,0 6.98308,-1.13915 10.39843,-2.88476 l 0,-13.96485 10.39649,0 0,20.41602 c -5.61624,4.09865 -14.19283,6.90625 -21.55469,6.90625 -16.08992,0 -28.30859,-11.68637 -28.30859,-27.09375 0,-15.33113 12.44628,-26.94336 28.99218,-26.94336 z m 31.34571,0.3789 11.99023,0 0,53.12696 -11.99023,0 z m -99.97071,22.9043 8.38086,0 6.83789,6.76172 -8.08007,0 0,8.40234 -7.13868,-7.11328 z m 10.51954,10.14258 8.11914,0 14.41796,14.25391 0,7.9082 -8.7207,0 -13.8164,-13.77149 z"
     style="fill:#5b9731;fill-opacity:1"
     inkscape:connector-curvature="0"
     sodipodi:nodetypes="ccccccccccsssccccccccccsccscsccscsccccccsccccssccssccssccsccssssccsscssssssccssssssccccsccssscccccccccscccssccccccccccccccccccccccccssccssssccssscccsscsccssscsccsssccccsssccccccccccccccccccc" /><polygon
     transform="matrix(0.94989456,0,0,0.94989456,-90.647814,-78.249964)"
     id="polygon3"
     points="198.306,162 176,162 176,183.433 195,202.37 195,180 216.513,180 "
     style="fill:#ee7913" /><polygon
     transform="matrix(0.94989456,0,0,0.94989456,-90.647814,-78.249964)"
     id="polygon31"
     points="204,189 204,211.34 240.782,248 264,248 264,226.946 225.617,189 "
     style="fill:url(#SVGID_4_)" /><polygon
     transform="matrix(0.94989456,0,0,0.94989456,-90.647814,-78.249964)"
     id="polygon33"
     points="216.513,180 195,180 195,202.37 204,211.34 204,189 225.617,189 "
     style="fill:#f0e64a" /><path
     id="path40"
     d="m 97.480704,127.74797 c -3.095707,0.71242 -6.314899,1.09902 -9.635731,1.09902 -23.752114,0 -43.95257,-19.53172 -43.95257,-44.855913 0,-25.32419 19.978182,-44.425619 43.95257,-44.425619 23.974387,0 43.064427,19.10048 43.064427,44.425619 0,4.118742 -0.51295,8.081702 -1.4619,11.835686 l 21.98436,21.980557 c 5.66803,-9.93114 8.83878,-21.478063 8.83878,-33.985324 0,-39.031168 -31.148,-68.255624 -72.870217,-68.255624 -41.53129,0 -72.678332,29.032577 -72.678332,68.255624 0,39.414924 31.147991,69.025044 72.678332,69.025044 10.72146,0 20.740947,-1.97199 29.716497,-5.56069 L 97.480704,127.74797 Z"
     style="fill:url(#linearGradient4331)"
     inkscape:connector-curvature="0" /><path
     style="fill:#ffffff;fill-opacity:0.17254902"
     id="polygon4174"
     d="m 76.533629,75.632954 83.590721,81.690936 0,-19.99974 -36.45962,-36.04404 -8.64739,-8.549054 -17.294755,-17.098102 z"
     inkscape:connector-curvature="0" /></svg>